<?xml version="1.0" encoding="UTF-8"?>
<svg id="Layer_1" data-name="Layer 1" xmlns="http://www.w3.org/2000/svg" xmlns:xlink="http://www.w3.org/1999/xlink" viewBox="0 0 400.56 283.48">
  <defs>
    <style>
      .cls-1 {
        fill: url(#linear-gradient);
      }

      .cls-2 {
        fill: #00bae5;
      }

      .cls-3 {
        fill: #fff;
      }

      .cls-4 {
        fill: #ef3e23;
      }

      .cls-5 {
        fill: #934621;
      }

      .cls-6 {
        fill: #231f20;
      }
    </style>
    <linearGradient id="linear-gradient" x1="200.28" y1="213.93" x2="200.28" y2="25.5" gradientUnits="userSpaceOnUse">
      <stop offset="0" stop-color="#ef4423"/>
      <stop offset=".51" stop-color="#f26a21"/>
      <stop offset=".77" stop-color="#f99e1c"/>
      <stop offset="1" stop-color="#fbc90d"/>
    </linearGradient>
  </defs>
  <path class="cls-6" d="M376.4,49.37C320.67,22.76,261.96,7.85,201.92,5.04c-.54-.03-1.09-.04-1.64-.04s-1.1,0-1.65,.04C138.6,7.85,79.89,22.76,24.16,49.37c-14.14,6.75-21.7,22.18-18.38,37.53l27.14,125.59c2.55,11.81,11.29,21.41,22.81,25.05l115.33,36.41c9.52,3.01,19.35,4.53,29.22,4.53s19.71-1.52,29.22-4.53l115.33-36.41c11.52-3.64,20.26-13.23,22.81-25.05l27.14-125.59c3.32-15.35-4.24-30.78-18.38-37.53Zm-176.12,216.11c-8.55,0-17.06-1.32-25.3-3.92l-115.33-36.42c-7.08-2.23-12.46-8.13-14.03-15.39L18.49,84.16c-2.04-9.44,2.59-18.92,11.27-23.06,54.16-25.85,111.18-40.35,169.48-43.08,.35-.01,.69-.02,1.04-.02s.69,0,1.04,.02c58.3,2.73,115.32,17.23,169.48,43.08,8.68,4.14,13.31,13.62,11.27,23.06l-27.13,125.59c-1.57,7.26-6.95,13.16-14.03,15.39l-115.33,36.42c-8.24,2.6-16.75,3.92-25.3,3.92Z"/>
  <path class="cls-3" d="M372.96,56.59c-54.77-26.15-112.44-40.8-171.41-43.56-.42-.02-.84-.03-1.27-.03s-.85,0-1.27,.03c-58.97,2.76-116.64,17.41-171.41,43.56-10.77,5.14-16.53,16.91-14,28.62l27.14,125.6c1.94,9.01,8.61,16.33,17.4,19.1l115.33,36.42c8.77,2.76,17.79,4.15,26.81,4.15s18.04-1.39,26.81-4.15l115.33-36.42c8.79-2.77,15.46-10.09,17.4-19.1l27.14-125.6c2.53-11.71-3.23-23.48-14-28.62Zm4.23,26.51l-27.14,125.59c-1.19,5.51-5.27,9.99-10.64,11.68l-115.33,36.42c-7.75,2.45-15.76,3.69-23.8,3.69s-16.04-1.24-23.8-3.69l-115.33-36.42c-5.37-1.69-9.45-6.17-10.64-11.68L23.38,83.1c-1.55-7.16,1.96-14.35,8.53-17.49,53.56-25.56,109.94-39.89,167.56-42.59,.27-.01,.54-.02,.81-.02s.54,0,.8,.02c57.63,2.7,114.01,17.03,167.57,42.59,6.57,3.14,10.08,10.33,8.54,17.49Zm-4.23-26.51c-54.77-26.15-112.44-40.8-171.41-43.56-.42-.02-.84-.03-1.27-.03s-.85,0-1.27,.03c-58.97,2.76-116.64,17.41-171.41,43.56-10.77,5.14-16.53,16.91-14,28.62l27.14,125.6c1.94,9.01,8.61,16.33,17.4,19.1l115.33,36.42c8.77,2.76,17.79,4.15,26.81,4.15s18.04-1.39,26.81-4.15l115.33-36.42c8.79-2.77,15.46-10.09,17.4-19.1l27.14-125.6c2.53-11.71-3.23-23.48-14-28.62Zm4.23,26.51l-27.14,125.59c-1.19,5.51-5.27,9.99-10.64,11.68l-115.33,36.42c-7.75,2.45-15.76,3.69-23.8,3.69s-16.04-1.24-23.8-3.69l-115.33-36.42c-5.37-1.69-9.45-6.17-10.64-11.68L23.38,83.1c-1.55-7.16,1.96-14.35,8.53-17.49,53.56-25.56,109.94-39.89,167.56-42.59,.27-.01,.54-.02,.81-.02s.54,0,.8,.02c57.63,2.7,114.01,17.03,167.57,42.59,6.57,3.14,10.08,10.33,8.54,17.49Zm-4.23-26.51c-54.77-26.15-112.44-40.8-171.41-43.56-.42-.02-.84-.03-1.27-.03s-.85,0-1.27,.03c-58.97,2.76-116.64,17.41-171.41,43.56-10.77,5.14-16.53,16.91-14,28.62l27.14,125.6c1.94,9.01,8.61,16.33,17.4,19.1l115.33,36.42c8.77,2.76,17.79,4.15,26.81,4.15s18.04-1.39,26.81-4.15l115.33-36.42c8.79-2.77,15.46-10.09,17.4-19.1l27.14-125.6c2.53-11.71-3.23-23.48-14-28.62Zm4.23,26.51l-27.14,125.59c-1.19,5.51-5.27,9.99-10.64,11.68l-115.33,36.42c-7.75,2.45-15.76,3.69-23.8,3.69s-16.04-1.24-23.8-3.69l-115.33-36.42c-5.37-1.69-9.45-6.17-10.64-11.68L23.38,83.1c-1.55-7.16,1.96-14.35,8.53-17.49,53.56-25.56,109.94-39.89,167.56-42.59,.27-.01,.54-.02,.81-.02s.54,0,.8,.02c57.63,2.7,114.01,17.03,167.57,42.59,6.57,3.14,10.08,10.33,8.54,17.49Zm-4.23-26.51c-54.77-26.15-112.44-40.8-171.41-43.56-.42-.02-.84-.03-1.27-.03s-.85,0-1.27,.03c-58.97,2.76-116.64,17.41-171.41,43.56-10.77,5.14-16.53,16.91-14,28.62l27.14,125.6c1.94,9.01,8.61,16.33,17.4,19.1l115.33,36.42c8.77,2.76,17.79,4.15,26.81,4.15s18.04-1.39,26.81-4.15l115.33-36.42c8.79-2.77,15.46-10.09,17.4-19.1l27.14-125.6c2.53-11.71-3.23-23.48-14-28.62Zm4.23,26.51l-27.14,125.59c-1.19,5.51-5.27,9.99-10.64,11.68l-115.33,36.42c-7.75,2.45-15.76,3.69-23.8,3.69s-16.04-1.24-23.8-3.69l-115.33-36.42c-5.37-1.69-9.45-6.17-10.64-11.68L23.38,83.1c-1.55-7.16,1.96-14.35,8.53-17.49,53.56-25.56,109.94-39.89,167.56-42.59,.27-.01,.54-.02,.81-.02s.54,0,.8,.02c57.63,2.7,114.01,17.03,167.57,42.59,6.57,3.14,10.08,10.33,8.54,17.49Zm1.37-38.25C322.21,17.96,262.87,2.89,202.16,.04c-.63-.03-1.26-.04-1.88-.04s-1.25,0-1.87,.04C137.69,2.89,78.35,17.96,22,44.85,5.77,52.61-2.92,70.33,.89,87.96l27.14,125.59c2.93,13.56,12.97,24.58,26.2,28.76l115.33,36.41c10,3.16,20.33,4.76,30.72,4.76s20.72-1.6,30.72-4.76l115.33-36.41c13.23-4.18,23.27-15.2,26.2-28.76l27.14-125.59c3.81-17.63-4.87-35.35-21.11-43.11Zm11.33,41l-27.13,125.59c-2.18,10.06-9.62,18.23-19.44,21.33l-115.33,36.42c-9.06,2.86-18.39,4.29-27.71,4.29s-18.65-1.43-27.71-4.29l-115.33-36.42c-9.82-3.1-17.26-11.27-19.44-21.33L10.67,85.85c-2.83-13.08,3.61-26.23,15.64-31.97C81.44,27.56,139.5,12.81,198.87,10.03c.47-.02,.94-.03,1.41-.03s.95,0,1.41,.03c59.37,2.78,117.43,17.53,172.56,43.85,12.04,5.74,18.47,18.89,15.64,31.97Zm-16.93-29.26c-54.77-26.15-112.44-40.8-171.41-43.56-.42-.02-.84-.03-1.27-.03s-.85,0-1.27,.03c-58.97,2.76-116.64,17.41-171.41,43.56-10.77,5.14-16.53,16.91-14,28.62l27.14,125.6c1.94,9.01,8.61,16.33,17.4,19.1l115.33,36.42c8.77,2.76,17.79,4.15,26.81,4.15s18.04-1.39,26.81-4.15l115.33-36.42c8.79-2.77,15.46-10.09,17.4-19.1l27.14-125.6c2.53-11.71-3.23-23.48-14-28.62Zm4.23,26.51l-27.14,125.59c-1.19,5.51-5.27,9.99-10.64,11.68l-115.33,36.42c-7.75,2.45-15.76,3.69-23.8,3.69s-16.04-1.24-23.8-3.69l-115.33-36.42c-5.37-1.69-9.45-6.17-10.64-11.68L23.38,83.1c-1.55-7.16,1.96-14.35,8.53-17.49,53.56-25.56,109.94-39.89,167.56-42.59,.27-.01,.54-.02,.81-.02s.54,0,.8,.02c57.63,2.7,114.01,17.03,167.57,42.59,6.57,3.14,10.08,10.33,8.54,17.49Z"/>
  <path class="cls-6" d="M377.19,83.1l-27.14,125.59c-1.19,5.51-5.27,9.99-10.64,11.68l-115.33,36.42c-7.75,2.45-15.76,3.69-23.8,3.69s-16.04-1.24-23.8-3.69l-115.33-36.42c-5.37-1.69-9.45-6.17-10.64-11.68L23.38,83.1c-1.55-7.16,1.96-14.35,8.53-17.49,53.56-25.56,109.94-39.89,167.56-42.59,.27-.01,.54-.02,.81-.02s.54,0,.8,.02c57.63,2.7,114.01,17.03,167.57,42.59,6.57,3.14,10.08,10.33,8.54,17.49Z"/>
  <path class="cls-1" d="M373.48,84.33l-3.07,14.18-23.51,108.77c-.54,2.5-1.67,4.76-3.28,6.65-43.71-5.57-92.24-8.67-143.34-8.67s-99.63,3.1-143.35,8.67c-1.61-1.89-2.74-4.15-3.28-6.65L28.73,91.9l-1.64-7.57c-1.52-7.01,1.92-14.05,8.35-17.12,52.44-25.02,107.64-39.05,164.05-41.69,.26-.01,.52-.02,.79-.02s.52,0,.78,.02c56.42,2.64,111.61,16.67,164.06,41.69,6.43,3.07,9.86,10.11,8.36,17.12Z"/>
  <path class="cls-2" d="M343.62,213.93c-1.84,2.21-4.3,3.89-7.14,4.79l-112.9,35.65c-7.59,2.4-15.43,3.61-23.3,3.61s-15.71-1.21-23.3-3.61l-112.91-35.65c-2.84-.9-5.3-2.58-7.14-4.79,43.73-5.57,92.26-8.67,143.35-8.67s99.63,3.1,143.34,8.67Z"/>
  <circle class="cls-4" cx="182.74" cy="131.74" r="38.86"/>
  <path class="cls-5" d="M370.41,98.51l-23.51,108.77c-.54,2.5-1.67,4.76-3.28,6.65-43.71-5.57-92.24-8.67-143.34-8.67s-99.63,3.1-143.35,8.67c-1.61-1.89-2.74-4.15-3.28-6.65L28.73,91.9l6.85,.33,5.88-3.92,4.31,2.74,4.3-18.38h9.38l9.39-3.14,7.44,8.22,14.09-4.7,8.22,6.27,9.78,2.34,8.61-4.69,12.13,7.43,6.65-1.17,4.3,3.52v14.09l4.31,3.51v3.92l7.04,9,3.13,24.51,4.3,10.71,1.57,8.99,11.73-14.48,10.57-5.22,3.91-3.77,8.61-2.74,10.96-7.05,4.3-12.71,7.44-5.67,8.22,5.67,13.69-7.24,9-10.17,6.26-3.52,1.96-9.79,9.39,7.83,6.65,10.95,7.43-3.91v-8.61l8.61-5.48,3.14-8.21,7.03-6.27,4.31-6.65,10.95,7.45v8.6l9.79,9.39,4.69,12.91,5.48,10.17v6.66l5.49,12.91,9.39-19.57,8.99-8.61,12.01-5.84Z"/>
  <path class="cls-6" d="M161.9,63.04s17.74,.28,21.68,4.22c0,0-10.42,8.17-25.34,3.66v2.53s-7.88-2.25-8.45-5.21l2.82-1.27s-9.01-9.85-2.82-21.4c0,0,2.82-2.82,7.32,15.2,0,0,2.29-1.41,5.14,.32,0,0-1.44,.6-.35,1.94Z"/>
  <g>
    <path class="cls-6" d="M149.52,224.59c0,.89-.05,1.1-.24,1.54-.29,.53-.94,.91-1.58,.91s-1.32-.38-1.61-.91c-.22-.43-.24-.62-.24-1.54v-12.17c0-1.13,.72-1.87,1.82-1.87,.65,0,1.03,.22,1.51,.82l7.08,8.91v-7.27c0-.89,.05-1.1,.24-1.54,.29-.53,.94-.91,1.61-.91s1.32,.38,1.58,.91c.22,.43,.24,.62,.24,1.54v11.93c0,.79-.12,1.15-.5,1.56-.34,.38-.74,.55-1.25,.55-.46,0-.82-.14-1.15-.46q-.14-.12-.74-.86l-6.77-8.62v7.49Z"/>
    <path class="cls-6" d="M166.03,223.75l-.38,1.39c-.38,1.39-.91,1.94-1.87,1.94-1.01,0-1.87-.82-1.87-1.78,0-.41,.02-.53,.31-1.27l4.18-11.52c.48-1.3,1.44-2.04,2.71-2.04s2.23,.74,2.71,2.04l4.18,11.52c.29,.74,.31,.89,.31,1.27,0,.96-.84,1.78-1.87,1.78-.96,0-1.46-.53-1.87-1.94l-.38-1.39h-6.14Zm3.1-9.38l-1.94,6.1h3.89l-1.94-6.1Z"/>
    <path class="cls-6" d="M183.53,224.59c0,.89-.05,1.1-.24,1.54-.29,.53-.94,.91-1.58,.91s-1.32-.38-1.61-.91c-.22-.43-.24-.62-.24-1.54v-10.51h-1.82c-.79,0-.98-.02-1.37-.22-.48-.24-.82-.84-.82-1.44s.34-1.18,.82-1.42c.38-.19,.55-.22,1.37-.22h7.25c.79,0,.98,.02,1.37,.22,.48,.24,.82,.84,.82,1.42s-.34,1.2-.82,1.44c-.38,.19-.55,.22-1.37,.22h-1.75v10.51Z"/>
    <path class="cls-6" d="M189.38,213c0-.89,.05-1.1,.24-1.54,.29-.53,.94-.91,1.61-.91s1.32,.38,1.58,.91c.22,.43,.24,.62,.24,1.54v11.59c0,.89-.05,1.1-.24,1.54-.29,.53-.94,.91-1.58,.91s-1.32-.38-1.61-.91c-.22-.43-.24-.62-.24-1.54v-11.59Z"/>
    <path class="cls-6" d="M211.37,218.79c0,4.99-3.19,8.42-7.85,8.42s-7.97-3.38-7.97-8.57c0-2.57,.94-4.82,2.62-6.29,1.49-1.3,3.29-1.97,5.3-1.97,4.68,0,7.9,3.41,7.9,8.4Zm-11.91-.14c0,3.22,1.56,5.28,4.03,5.28s3.96-2.04,3.96-5.14-1.56-5.11-3.96-5.11-4.03,2.02-4.03,4.97Z"/>
    <path class="cls-6" d="M217.53,224.59c0,.89-.05,1.1-.24,1.54-.29,.53-.94,.91-1.58,.91s-1.32-.38-1.61-.91c-.22-.43-.24-.62-.24-1.54v-12.17c0-1.13,.72-1.87,1.82-1.87,.65,0,1.03,.22,1.51,.82l7.08,8.91v-7.27c0-.89,.05-1.1,.24-1.54,.29-.53,.94-.91,1.61-.91s1.32,.38,1.58,.91c.22,.43,.24,.62,.24,1.54v11.93c0,.79-.12,1.15-.5,1.56-.34,.38-.74,.55-1.25,.55-.46,0-.82-.14-1.15-.46q-.14-.12-.74-.86l-6.77-8.62v7.49Z"/>
    <path class="cls-6" d="M234.04,223.75l-.38,1.39c-.38,1.39-.91,1.94-1.87,1.94-1.01,0-1.87-.82-1.87-1.78,0-.41,.02-.53,.31-1.27l4.18-11.52c.48-1.3,1.44-2.04,2.71-2.04s2.23,.74,2.71,2.04l4.18,11.52c.29,.74,.31,.89,.31,1.27,0,.96-.84,1.78-1.87,1.78-.96,0-1.46-.53-1.87-1.94l-.38-1.39h-6.14Zm3.1-9.38l-1.94,6.1h3.89l-1.94-6.1Z"/>
    <path class="cls-6" d="M253.7,223.51c.79,0,.98,.02,1.37,.22,.48,.24,.82,.84,.82,1.42s-.34,1.2-.82,1.44c-.38,.19-.55,.22-1.37,.22h-4.34c-1.99,.1-2.86-.77-2.76-2.78v-11.02c0-.89,.05-1.1,.24-1.54,.29-.53,.94-.91,1.61-.91s1.32,.38,1.58,.91c.22,.43,.24,.62,.24,1.54v10.51h3.43Z"/>
    <path class="cls-6" d="M176.13,244.59c0,.89-.05,1.1-.24,1.54-.29,.53-.94,.91-1.58,.91s-1.32-.38-1.61-.91c-.22-.43-.24-.65-.24-1.54v-11.14c0-1.13,.07-1.42,.38-1.85,.43-.58,.98-.82,1.82-.82h3.77c1.82,0,3.1,.41,4.08,1.32,1.06,.98,1.68,2.52,1.68,4.08,0,1.34-.46,2.71-1.22,3.65-.94,1.15-2.28,1.7-4.06,1.7h-2.78v3.05Zm1.85-6.24c1.49,0,2.45-.86,2.45-2.16s-.89-2.21-2.26-2.21h-2.04v4.37h1.85Z"/>
    <path class="cls-6" d="M188.54,243.75l-.38,1.39c-.38,1.39-.91,1.94-1.87,1.94-1.01,0-1.87-.82-1.87-1.78,0-.41,.02-.53,.31-1.27l4.18-11.52c.48-1.3,1.44-2.04,2.71-2.04s2.23,.74,2.71,2.04l4.18,11.52c.29,.74,.31,.89,.31,1.27,0,.96-.84,1.78-1.87,1.78-.96,0-1.46-.53-1.87-1.94l-.38-1.39h-6.14Zm3.1-9.38l-1.94,6.1h3.89l-1.94-6.1Z"/>
    <path class="cls-6" d="M204.67,244.59c0,.89-.05,1.1-.24,1.54-.29,.53-.94,.91-1.58,.91s-1.32-.38-1.61-.91c-.22-.43-.24-.62-.24-1.54v-11.14c0-1.13,.07-1.42,.38-1.85,.43-.58,.98-.82,1.82-.82h3.72c3.38,0,5.59,1.94,5.59,4.97,0,1.3-.43,2.47-1.25,3.24-.62,.6-1.2,.86-2.5,1.15l3.12,3.46c.7,.77,.89,1.13,.89,1.66,0,.98-.84,1.8-1.85,1.8-.65,0-1.06-.26-1.75-1.15l-4.51-5.62v4.3Zm2.28-6.87c1.15,0,1.97-.74,1.97-1.8s-.89-1.94-2.04-1.94h-2.21v3.74h2.28Z"/>
    <path class="cls-6" d="M219.17,244.59c0,.89-.05,1.1-.24,1.54-.29,.53-.94,.91-1.58,.91s-1.32-.38-1.61-.91c-.22-.43-.24-.62-.24-1.54v-11.59c0-.89,.05-1.1,.24-1.54,.29-.53,.94-.91,1.61-.91s1.32,.38,1.58,.91c.22,.43,.24,.62,.24,1.54v4.1l4.73-5.3c.86-.96,1.32-1.25,1.99-1.25,.96,0,1.7,.77,1.7,1.78,0,.72-.19,1.06-1.08,1.97l-3.87,3.91,4.87,5.16c.89,.94,1.06,1.25,1.06,1.94,0,1.03-.67,1.73-1.7,1.73-.79,0-1.13-.19-2.04-1.2l-5.66-6.22v4.97Z"/>
  </g>
  <g>
    <path class="cls-3" d="M79.29,180.44c.2,1.71-.77,3.03-2.31,3.21-.64,.07-1.08,0-2.47-.41s-2.26-.47-3.5-.33c-4.48,.52-6.79,4.17-6.14,9.76,.64,5.51,3.71,8.49,8.24,7.96q1.62-.19,4.37-1.85c.49-.27,.99-.46,1.41-.51,1.45-.17,2.81,1.06,3,2.68,.32,2.78-3.08,5.21-8.07,5.79-8.58,1-14.92-4.33-15.97-13.42-1.02-8.76,4.08-15.54,12.41-16.5,5.08-.59,8.72,.89,9.03,3.63Z"/>
    <path class="cls-3" d="M93.67,198.43l-.46,2.55c-.46,2.55-1.31,3.62-3.02,3.77-1.8,.17-3.47-1.15-3.63-2.86-.07-.73-.04-.95,.35-2.32l5.57-21.23c.64-2.39,2.24-3.88,4.5-4.08,2.27-.21,4.1,.96,5.17,3.2l9.33,19.87c.63,1.28,.7,1.53,.76,2.22,.16,1.71-1.21,3.31-3.05,3.47-1.71,.16-2.7-.7-3.66-3.16l-.91-2.42-10.96,1Zm3.99-17.25l-2.47,11.19,6.94-.64-4.46-10.56Z"/>
    <path class="cls-3" d="M124.41,197.38c.11,1.59,.05,1.98-.24,2.77-.45,.98-1.56,1.75-2.72,1.83-1.2,.08-2.41-.52-2.99-1.43-.44-.75-.51-1.13-.62-2.71l-1.37-19.9c-.14-2.02-.05-2.54,.46-3.35,.7-1.08,1.66-1.58,3.16-1.68l.82-.06,5.92-.41c3.26-.23,5.58,.35,7.45,1.86,2.01,1.63,3.31,4.3,3.51,7.08,.17,2.4-.48,4.9-1.74,6.67-1.53,2.17-3.86,3.33-7.04,3.55l-4.97,.34,.38,5.45Zm2.53-11.38c2.66-.18,4.27-1.85,4.11-4.16-.16-2.36-1.86-3.84-4.3-3.67l-3.65,.25,.54,7.81,3.3-.23Z"/>
    <path class="cls-3" d="M143.2,175.38c-.08-1.59-.02-1.98,.29-2.77,.47-.97,1.59-1.72,2.79-1.78,1.16-.06,2.4,.56,2.92,1.48,.43,.75,.49,1.09,.57,2.73l1.08,20.74c.08,1.59,.02,1.98-.29,2.77-.47,.97-1.59,1.72-2.75,1.78-1.2,.06-2.4-.56-2.96-1.48-.43-.75-.49-1.09-.57-2.73l-1.08-20.74Z"/>
    <path class="cls-3" d="M169.72,195c.06,1.59-.02,1.98-.33,2.76-.48,.96-1.62,1.69-2.78,1.73-1.2,.04-2.39-.6-2.94-1.53-.41-.76-.47-1.1-.53-2.73l-.66-18.82-3.27,.11c-1.42,.05-1.76,.02-2.46-.3-.87-.4-1.51-1.45-1.55-2.53-.04-1.03,.53-2.13,1.37-2.59,.68-.37,.97-.42,2.44-.47l12.98-.46c1.42-.05,1.76-.02,2.46,.3,.87,.4,1.51,1.45,1.55,2.48,.04,1.07-.53,2.17-1.37,2.63-.68,.37-.97,.42-2.44,.47l-3.14,.11,.66,18.82Z"/>
    <path class="cls-3" d="M208.14,184.03c.06,8.94-5.62,15.13-13.96,15.19-8.64,.06-14.32-5.97-14.38-15.25-.03-4.6,1.62-8.65,4.61-11.3,2.65-2.34,5.87-3.57,9.48-3.59,8.38-.06,14.19,6.01,14.25,14.95Zm-21.33-.11c.04,5.76,2.86,9.44,7.29,9.41,4.3-.03,7.07-3.7,7.03-9.25s-2.86-9.14-7.16-9.11c-4.26,.03-7.2,3.66-7.16,8.95Z"/>
    <path class="cls-3" d="M227.27,192.97c1.42,.03,1.76,.08,2.44,.44,.85,.45,1.43,1.54,1.4,2.57-.02,1.07-.65,2.13-1.52,2.54-.7,.33-1,.36-2.46,.33l-7.78-.18c-3.57,.09-5.08-1.49-4.83-5.1l.46-19.73c.04-1.59,.13-1.98,.49-2.74,.54-.93,1.71-1.59,2.92-1.57,1.16,.03,2.35,.74,2.8,1.7,.37,.78,.4,1.13,.37,2.76l-.43,18.83,6.15,.14Z"/>
    <path class="cls-3" d="M256.27,196.17c-.1,1.59-.21,1.97-.59,2.72-.57,.91-1.77,1.53-2.93,1.46-1.2-.07-2.32-.83-2.78-1.8-.34-.8-.36-1.14-.26-2.77l1.2-19.92c.12-2.02,.28-2.52,.89-3.26,.83-.98,1.85-1.35,3.35-1.26l.82,.05,5.84,.35c6.05,.36,9.79,4.08,9.47,9.49-.14,2.32-1.04,4.38-2.58,5.66-1.18,1.01-2.24,1.42-4.59,1.79l5.21,6.52c1.16,1.45,1.47,2.11,1.41,3.06-.11,1.76-1.7,3.13-3.5,3.02-1.16-.07-1.86-.59-3.01-2.25l-7.47-10.53-.46,7.68Zm4.81-12.03c2.06,.12,3.6-1.12,3.71-3.01,.12-1.97-1.38-3.57-3.44-3.7l-3.95-.24-.4,6.7,4.08,.25Z"/>
    <path class="cls-3" d="M284.96,184.74l5.49,.45c1.41,.12,1.75,.19,2.41,.59,.82,.5,1.33,1.62,1.25,2.65-.09,1.07-.78,2.09-1.67,2.45-.71,.29-1.06,.3-2.47,.19l-5.49-.45-.45,5.53,6.13,.5c1.42,.12,1.75,.19,2.41,.59,.82,.5,1.33,1.62,1.25,2.65-.09,1.07-.78,2.09-1.67,2.45-.71,.29-1.02,.3-2.47,.19l-7.93-.65c-3.44-.11-4.82-1.73-4.37-5.15l1.56-19.07c.16-1.97,.33-2.52,.96-3.24,.86-.97,1.88-1.31,3.38-1.19l.81,.07,7.93,.65c1.41,.12,1.75,.19,2.41,.59,.82,.5,1.33,1.62,1.25,2.65-.09,1.07-.78,2.09-1.67,2.45-.71,.29-1.02,.3-2.47,.19l-6.13-.5-.45,5.44Z"/>
    <path class="cls-3" d="M308.38,186.87l5.48,.56c1.41,.14,1.75,.22,2.4,.63,.81,.51,1.3,1.65,1.2,2.67-.11,1.07-.82,2.08-1.71,2.42-.72,.27-1.07,.28-2.48,.14l-5.48-.56-.56,5.52,6.12,.62c1.41,.14,1.75,.22,2.4,.63,.81,.51,1.3,1.65,1.2,2.67-.11,1.07-.82,2.08-1.72,2.42-.72,.27-1.02,.29-2.48,.14l-7.92-.8c-3.44-.18-4.79-1.83-4.27-5.23l1.93-19.04c.2-1.97,.39-2.51,1.02-3.22,.88-.95,1.9-1.28,3.4-1.12l.81,.08,7.92,.8c1.41,.14,1.75,.22,2.4,.63,.81,.52,1.3,1.65,1.2,2.67-.11,1.07-.82,2.08-1.72,2.42-.72,.27-1.02,.29-2.48,.14l-6.12-.62-.55,5.43Z"/>
    <path class="cls-3" d="M331.64,189.72l5.16,.64c1.41,.17,1.74,.26,2.38,.69,.8,.53,1.26,1.67,1.14,2.7-.13,1.07-.86,2.06-1.77,2.38-.73,.26-1.03,.26-2.48,.08l-5.16-.64-.89,7.17c-.2,1.58-.33,1.95-.77,2.68-.63,.88-1.87,1.41-3.02,1.27-1.19-.15-2.26-.97-2.66-1.98-.29-.82-.29-1.16-.09-2.78l2.46-19.8c.24-1.96,.44-2.5,1.09-3.2,.9-.93,1.93-1.23,3.42-1.05l.81,.1,8.02,1c1.41,.17,1.74,.26,2.38,.69,.8,.53,1.26,1.67,1.14,2.7-.13,1.07-.86,2.06-1.77,2.38-.73,.26-1.07,.26-2.48,.08l-6.23-.78-.71,5.67Z"/>
  </g>
</svg>