<?xml version="1.0" encoding="utf-8"?>
<!-- Generator: Adobe Illustrator 26.5.0, SVG Export Plug-In . SVG Version: 6.00 Build 0)  -->
<svg version="1.1" id="Layer_1" xmlns="http://www.w3.org/2000/svg" xmlns:xlink="http://www.w3.org/1999/xlink" x="0px" y="0px"
	 viewBox="0 0 400.6 283.5" style="enable-background:new 0 0 400.6 283.5;" xml:space="preserve">
<style type="text/css">
	.st0{fill:#231F20;}
	.st1{fill:#FFFFFF;}
	.st2{fill:url(#SVGID_1_);}
	.st3{fill:#00BAE5;}
	.st4{fill:#EF3E23;}
	.st5{fill:#934621;}
</style>
<path class="st0" d="M320,79c-37.9-18.1-77.8-28.2-118.6-30.1c-0.4,0-0.7,0-1.1,0s-0.7,0-1.1,0c-40.8,1.9-80.7,12-118.6,30.1
	C71,83.6,65.8,94,68.1,104.5l18.4,85.4c1.7,8,7.7,14.6,15.5,17l78.4,24.7c6.5,2,13.2,3.1,19.9,3.1c6.7,0,13.4-1,19.9-3.1l78.4-24.7
	c7.8-2.5,13.8-9,15.5-17l18.4-85.4C334.7,94,329.6,83.6,320,79L320,79z M200.3,225.8c-5.8,0-11.6-0.9-17.2-2.7l-78.4-24.8
	c-4.8-1.5-8.5-5.5-9.5-10.5l-18.4-85.4c-1.4-6.4,1.8-12.9,7.7-15.7c36.8-17.6,75.6-27.4,115.2-29.3c0.2,0,0.5,0,0.7,0
	c0.2,0,0.5,0,0.7,0c39.6,1.9,78.4,11.7,115.2,29.3c5.9,2.8,9,9.3,7.7,15.7L305.4,188c-1.1,4.9-4.7,8.9-9.5,10.5l-78.4,24.8
	C211.9,224.9,206.1,225.8,200.3,225.8L200.3,225.8z"/>
<path class="st1" d="M317.6,83.9c-37.2-17.8-76.4-27.7-116.5-29.6c-0.3,0-0.6,0-0.9,0c-0.3,0-0.6,0-0.9,0
	c-40.1,1.9-79.3,11.8-116.5,29.6c-7.3,3.5-11.2,11.5-9.5,19.5l18.4,85.4c1.3,6.1,5.9,11.1,11.8,13l78.4,24.8
	c6,1.9,12.1,2.8,18.2,2.8c6.1,0,12.3-0.9,18.2-2.8l78.4-24.8c6-1.9,10.5-6.9,11.8-13l18.4-85.4C328.9,95.4,325,87.4,317.6,83.9
	L317.6,83.9z M320.5,101.9l-18.4,85.4c-0.8,3.7-3.6,6.8-7.2,7.9l-78.4,24.8c-5.3,1.7-10.7,2.5-16.2,2.5s-10.9-0.8-16.2-2.5
	l-78.4-24.8c-3.6-1.1-6.4-4.2-7.2-7.9l-18.4-85.4C79,97,81.4,92.1,85.9,90c36.4-17.4,74.7-27.1,113.9-28.9c0.2,0,0.4,0,0.6,0
	s0.4,0,0.5,0C240,62.9,278.3,72.6,314.7,90C319.2,92.1,321.6,97,320.5,101.9L320.5,101.9z M317.6,83.9
	c-37.2-17.8-76.4-27.7-116.5-29.6c-0.3,0-0.6,0-0.9,0c-0.3,0-0.6,0-0.9,0c-40.1,1.9-79.3,11.8-116.5,29.6
	c-7.3,3.5-11.2,11.5-9.5,19.5l18.4,85.4c1.3,6.1,5.9,11.1,11.8,13l78.4,24.8c6,1.9,12.1,2.8,18.2,2.8c6.1,0,12.3-0.9,18.2-2.8
	l78.4-24.8c6-1.9,10.5-6.9,11.8-13l18.4-85.4C328.9,95.4,325,87.4,317.6,83.9L317.6,83.9z M320.5,101.9l-18.4,85.4
	c-0.8,3.7-3.6,6.8-7.2,7.9l-78.4,24.8c-5.3,1.7-10.7,2.5-16.2,2.5s-10.9-0.8-16.2-2.5l-78.4-24.8c-3.6-1.1-6.4-4.2-7.2-7.9
	l-18.4-85.4C79,97,81.4,92.1,85.9,90c36.4-17.4,74.7-27.1,113.9-28.9c0.2,0,0.4,0,0.6,0s0.4,0,0.5,0C240,62.9,278.3,72.6,314.7,90
	C319.2,92.1,321.6,97,320.5,101.9L320.5,101.9z M317.6,83.9c-37.2-17.8-76.4-27.7-116.5-29.6c-0.3,0-0.6,0-0.9,0c-0.3,0-0.6,0-0.9,0
	c-40.1,1.9-79.3,11.8-116.5,29.6c-7.3,3.5-11.2,11.5-9.5,19.5l18.4,85.4c1.3,6.1,5.9,11.1,11.8,13l78.4,24.8
	c6,1.9,12.1,2.8,18.2,2.8c6.1,0,12.3-0.9,18.2-2.8l78.4-24.8c6-1.9,10.5-6.9,11.8-13l18.4-85.4C328.9,95.4,325,87.4,317.6,83.9
	L317.6,83.9z M320.5,101.9l-18.4,85.4c-0.8,3.7-3.6,6.8-7.2,7.9l-78.4,24.8c-5.3,1.7-10.7,2.5-16.2,2.5s-10.9-0.8-16.2-2.5
	l-78.4-24.8c-3.6-1.1-6.4-4.2-7.2-7.9l-18.4-85.4C79,97,81.4,92.1,85.9,90c36.4-17.4,74.7-27.1,113.9-28.9c0.2,0,0.4,0,0.6,0
	s0.4,0,0.5,0C240,62.9,278.3,72.6,314.7,90C319.2,92.1,321.6,97,320.5,101.9L320.5,101.9z M317.6,83.9
	c-37.2-17.8-76.4-27.7-116.5-29.6c-0.3,0-0.6,0-0.9,0c-0.3,0-0.6,0-0.9,0c-40.1,1.9-79.3,11.8-116.5,29.6
	c-7.3,3.5-11.2,11.5-9.5,19.5l18.4,85.4c1.3,6.1,5.9,11.1,11.8,13l78.4,24.8c6,1.9,12.1,2.8,18.2,2.8c6.1,0,12.3-0.9,18.2-2.8
	l78.4-24.8c6-1.9,10.5-6.9,11.8-13l18.4-85.4C328.9,95.4,325,87.4,317.6,83.9L317.6,83.9z M320.5,101.9l-18.4,85.4
	c-0.8,3.7-3.6,6.8-7.2,7.9l-78.4,24.8c-5.3,1.7-10.7,2.5-16.2,2.5s-10.9-0.8-16.2-2.5l-78.4-24.8c-3.6-1.1-6.4-4.2-7.2-7.9
	l-18.4-85.4C79,97,81.4,92.1,85.9,90c36.4-17.4,74.7-27.1,113.9-28.9c0.2,0,0.4,0,0.6,0s0.4,0,0.5,0C240,62.9,278.3,72.6,314.7,90
	C319.2,92.1,321.6,97,320.5,101.9L320.5,101.9z M321.4,75.9c-38.3-18.3-78.6-28.5-119.9-30.5c-0.4,0-0.9,0-1.3,0s-0.8,0-1.3,0
	c-41.3,1.9-81.6,12.2-119.9,30.5c-11,5.3-16.9,17.3-14.3,29.3l18.4,85.4c2,9.2,8.8,16.7,17.8,19.5l78.4,24.7
	c6.8,2.1,13.8,3.2,20.9,3.2c7.1,0,14.1-1.1,20.9-3.2l78.4-24.7c9-2.8,15.8-10.3,17.8-19.5l18.4-85.4
	C338.4,93.2,332.5,81.2,321.4,75.9L321.4,75.9z M329.1,103.8l-18.4,85.4c-1.5,6.8-6.5,12.4-13.2,14.5l-78.4,24.8
	c-6.2,1.9-12.5,2.9-18.8,2.9s-12.7-1-18.8-2.9l-78.4-24.8c-6.7-2.1-11.7-7.7-13.2-14.5l-18.4-85.4C69.5,94.9,73.9,85.9,82,82
	c37.5-17.9,76.9-27.9,117.3-29.8c0.3,0,0.6,0,1,0s0.6,0,1,0C241.6,54.1,281,64.1,318.5,82C326.7,85.9,331.1,94.9,329.1,103.8
	L329.1,103.8z M317.6,83.9c-37.2-17.8-76.4-27.7-116.5-29.6c-0.3,0-0.6,0-0.9,0c-0.3,0-0.6,0-0.9,0c-40.1,1.9-79.3,11.8-116.5,29.6
	c-7.3,3.5-11.2,11.5-9.5,19.5l18.4,85.4c1.3,6.1,5.9,11.1,11.8,13l78.4,24.8c6,1.9,12.1,2.8,18.2,2.8c6.1,0,12.3-0.9,18.2-2.8
	l78.4-24.8c6-1.9,10.5-6.9,11.8-13l18.4-85.4C328.9,95.4,325,87.4,317.6,83.9L317.6,83.9z M320.5,101.9l-18.4,85.4
	c-0.8,3.7-3.6,6.8-7.2,7.9l-78.4,24.8c-5.3,1.7-10.7,2.5-16.2,2.5s-10.9-0.8-16.2-2.5l-78.4-24.8c-3.6-1.1-6.4-4.2-7.2-7.9
	l-18.4-85.4C79,97,81.4,92.1,85.9,90c36.4-17.4,74.7-27.1,113.9-28.9c0.2,0,0.4,0,0.6,0s0.4,0,0.5,0C240,62.9,278.3,72.6,314.7,90
	C319.2,92.1,321.6,97,320.5,101.9L320.5,101.9z"/>
<path class="st0" d="M320.5,101.9l-18.4,85.4c-0.8,3.7-3.6,6.8-7.2,7.9l-78.4,24.8c-5.3,1.7-10.7,2.5-16.2,2.5s-10.9-0.8-16.2-2.5
	l-78.4-24.8c-3.6-1.1-6.4-4.2-7.2-7.9l-18.4-85.4C79,97,81.4,92.1,85.9,90c36.4-17.4,74.7-27.1,113.9-28.9c0.2,0,0.4,0,0.6,0
	s0.4,0,0.5,0C240,62.9,278.3,72.6,314.7,90C319.2,92.1,321.6,97,320.5,101.9L320.5,101.9z"/>
<linearGradient id="SVGID_1_" gradientUnits="userSpaceOnUse" x1="200.281" y1="95.1978" x2="200.281" y2="223.2598" gradientTransform="matrix(1 0 0 -1 0 286)">
	<stop  offset="0" style="stop-color:#EF4423"/>
	<stop  offset="0.51" style="stop-color:#F26A21"/>
	<stop  offset="0.77" style="stop-color:#F99E1C"/>
	<stop  offset="1" style="stop-color:#FBC90D"/>
</linearGradient>
<path class="st2" d="M318,102.7l-2.1,9.6l-16,73.9c-0.4,1.7-1.1,3.2-2.2,4.5c-29.7-3.8-62.7-5.9-97.4-5.9s-67.7,2.1-97.4,5.9
	c-1.1-1.3-1.9-2.8-2.2-4.5l-16.9-78.4l-1.1-5.1c-1-4.8,1.3-9.5,5.7-11.6c35.6-17,73.2-26.5,111.5-28.3c0.2,0,0.4,0,0.5,0
	s0.4,0,0.5,0c38.3,1.8,75.9,11.3,111.5,28.3C316.7,93.2,319,98,318,102.7L318,102.7z"/>
<path class="st3" d="M297.7,190.8c-1.3,1.5-2.9,2.6-4.9,3.3l-76.7,24.2c-5.2,1.6-10.5,2.5-15.8,2.5c-5.3,0-10.7-0.8-15.8-2.5
	l-76.7-24.2c-1.9-0.6-3.6-1.8-4.9-3.3c29.7-3.8,62.7-5.9,97.4-5.9S268,187,297.7,190.8L297.7,190.8z"/>
<circle class="st4" cx="188.4" cy="134.9" r="26.4"/>
<path class="st5" d="M315.9,112.4l-16,73.9c-0.4,1.7-1.1,3.2-2.2,4.5c-29.7-3.8-62.7-5.9-97.4-5.9s-67.7,2.1-97.4,5.9
	c-1.1-1.3-1.9-2.8-2.2-4.5l-16.9-78.4l4.7,0.2l4-2.7l2.9,1.9l2.9-12.5h6.4l6.4-2.1l5.1,5.6l9.6-3.2l5.6,4.3l6.6,1.6l5.9-3.2l8.2,5
	l4.5-0.8l2.9,2.4v9.6l2.9,2.4v2.7l4.8,6.1l2.1,16.7l2.9,7.3l1.1,6.1l8-9.8l7.2-3.5l2.7-2.6l5.9-1.9l7.4-4.8l2.9-8.6l5.1-3.9l5.6,3.9
	l9.3-4.9l6.1-6.9l4.3-2.4l1.3-6.7l6.4,5.3l4.5,7.4l5-2.7v-5.9l5.9-3.7l2.1-5.6l4.8-4.3l2.9-4.5l7.4,5.1v5.8l6.7,6.4l3.2,8.8l3.7,6.9
	v4.5l3.7,8.8l6.4-13.3l6.1-5.9L315.9,112.4L315.9,112.4z"/>
<path class="st0" d="M174.2,88.3c0,0,12.1,0.2,14.7,2.9c0,0-7.1,5.6-17.2,2.5v1.7c0,0-5.4-1.5-5.7-3.5l1.9-0.9c0,0-6.1-6.7-1.9-14.5
	c0,0,1.9-1.9,5,10.3c0,0,1.6-1,3.5,0.2C174.4,86.9,173.5,87.3,174.2,88.3L174.2,88.3z"/>
<g>
	<path class="st0" d="M165.8,198c0,0.6,0,0.7-0.2,1c-0.2,0.4-0.6,0.6-1.1,0.6c-0.4,0-0.9-0.3-1.1-0.6c-0.1-0.3-0.2-0.4-0.2-1v-8.3
		c0-0.8,0.5-1.3,1.2-1.3c0.4,0,0.7,0.1,1,0.6l4.8,6.1v-4.9c0-0.6,0-0.7,0.2-1c0.2-0.4,0.6-0.6,1.1-0.6c0.5,0,0.9,0.3,1.1,0.6
		c0.1,0.3,0.2,0.4,0.2,1v8.1c0,0.5-0.1,0.8-0.3,1.1c-0.2,0.3-0.5,0.4-0.8,0.4c-0.3,0-0.6-0.1-0.8-0.3c-0.1-0.1-0.2-0.2-0.5-0.6
		l-4.6-5.9V198L165.8,198z"/>
	<path class="st0" d="M177,197.5l-0.3,0.9c-0.3,0.9-0.6,1.3-1.3,1.3c-0.7,0-1.3-0.6-1.3-1.2c0-0.3,0-0.4,0.2-0.9l2.8-7.8
		c0.3-0.9,1-1.4,1.8-1.4s1.5,0.5,1.8,1.4l2.8,7.8c0.2,0.5,0.2,0.6,0.2,0.9c0,0.7-0.6,1.2-1.3,1.2c-0.7,0-1-0.4-1.3-1.3l-0.3-0.9H177
		L177,197.5z M179.1,191.1l-1.3,4.1h2.6L179.1,191.1L179.1,191.1z"/>
	<path class="st0" d="M188.9,198c0,0.6,0,0.7-0.2,1c-0.2,0.4-0.6,0.6-1.1,0.6c-0.4,0-0.9-0.3-1.1-0.6c-0.1-0.3-0.2-0.4-0.2-1v-7.1
		h-1.2c-0.5,0-0.7,0-0.9-0.1c-0.3-0.2-0.6-0.6-0.6-1s0.2-0.8,0.6-1c0.3-0.1,0.4-0.1,0.9-0.1h4.9c0.5,0,0.7,0,0.9,0.1
		c0.3,0.2,0.6,0.6,0.6,1s-0.2,0.8-0.6,1c-0.3,0.1-0.4,0.1-0.9,0.1h-1.2L188.9,198L188.9,198z"/>
	<path class="st0" d="M192.9,190.2c0-0.6,0-0.7,0.2-1c0.2-0.4,0.6-0.6,1.1-0.6c0.5,0,0.9,0.3,1.1,0.6c0.1,0.3,0.2,0.4,0.2,1v7.9
		c0,0.6,0,0.7-0.2,1c-0.2,0.4-0.6,0.6-1.1,0.6c-0.4,0-0.9-0.3-1.1-0.6c-0.1-0.3-0.2-0.4-0.2-1V190.2z"/>
	<path class="st0" d="M207.8,194.1c0,3.4-2.2,5.7-5.3,5.7c-3.2,0-5.4-2.3-5.4-5.8c0-1.7,0.6-3.3,1.8-4.3c1-0.9,2.2-1.3,3.6-1.3
		C205.6,188.4,207.8,190.7,207.8,194.1L207.8,194.1z M199.7,194c0,2.2,1.1,3.6,2.7,3.6s2.7-1.4,2.7-3.5c0-2.1-1.1-3.5-2.7-3.5
		S199.7,192,199.7,194z"/>
	<path class="st0" d="M212,198c0,0.6,0,0.7-0.2,1c-0.2,0.4-0.6,0.6-1.1,0.6c-0.4,0-0.9-0.3-1.1-0.6c-0.1-0.3-0.2-0.4-0.2-1v-8.3
		c0-0.8,0.5-1.3,1.2-1.3c0.4,0,0.7,0.1,1,0.6l4.8,6.1v-4.9c0-0.6,0-0.7,0.2-1c0.2-0.4,0.6-0.6,1.1-0.6c0.5,0,0.9,0.3,1.1,0.6
		c0.1,0.3,0.2,0.4,0.2,1v8.1c0,0.5-0.1,0.8-0.3,1.1c-0.2,0.3-0.5,0.4-0.8,0.4c-0.3,0-0.6-0.1-0.8-0.3c-0.1-0.1-0.2-0.2-0.5-0.6
		L212,193V198L212,198z"/>
	<path class="st0" d="M223.2,197.5l-0.3,0.9c-0.3,0.9-0.6,1.3-1.3,1.3c-0.7,0-1.3-0.6-1.3-1.2c0-0.3,0-0.4,0.2-0.9l2.8-7.8
		c0.3-0.9,1-1.4,1.8-1.4s1.5,0.5,1.8,1.4l2.8,7.8c0.2,0.5,0.2,0.6,0.2,0.9c0,0.7-0.6,1.2-1.3,1.2c-0.7,0-1-0.4-1.3-1.3l-0.3-0.9
		H223.2L223.2,197.5z M225.3,191.1l-1.3,4.1h2.6L225.3,191.1L225.3,191.1z"/>
	<path class="st0" d="M236.6,197.3c0.5,0,0.7,0,0.9,0.1c0.3,0.2,0.6,0.6,0.6,1c0,0.4-0.2,0.8-0.6,1c-0.3,0.1-0.4,0.1-0.9,0.1h-2.9
		c-1.4,0.1-1.9-0.5-1.9-1.9v-7.5c0-0.6,0-0.7,0.2-1c0.2-0.4,0.6-0.6,1.1-0.6s0.9,0.3,1.1,0.6c0.1,0.3,0.2,0.4,0.2,1v7.1L236.6,197.3
		L236.6,197.3z"/>
	<path class="st0" d="M183.9,211.6c0,0.6,0,0.7-0.2,1c-0.2,0.4-0.6,0.6-1.1,0.6c-0.4,0-0.9-0.3-1.1-0.6c-0.1-0.3-0.2-0.4-0.2-1v-7.6
		c0-0.8,0-1,0.3-1.3c0.3-0.4,0.7-0.6,1.2-0.6h2.6c1.2,0,2.1,0.3,2.8,0.9c0.7,0.7,1.1,1.7,1.1,2.8c0,0.9-0.3,1.8-0.8,2.5
		c-0.6,0.8-1.5,1.2-2.8,1.2h-1.9V211.6L183.9,211.6z M185.1,207.4c1,0,1.7-0.6,1.7-1.5s-0.6-1.5-1.5-1.5h-1.4v3H185.1L185.1,207.4z"
		/>
	<path class="st0" d="M192.3,211.1L192,212c-0.3,0.9-0.6,1.3-1.3,1.3c-0.7,0-1.3-0.6-1.3-1.2c0-0.3,0-0.4,0.2-0.9l2.8-7.8
		c0.3-0.9,1-1.4,1.8-1.4s1.5,0.5,1.8,1.4l2.8,7.8c0.2,0.5,0.2,0.6,0.2,0.9c0,0.7-0.6,1.2-1.3,1.2c-0.7,0-1-0.4-1.3-1.3l-0.3-0.9
		H192.3L192.3,211.1z M194.4,204.7l-1.3,4.1h2.6L194.4,204.7L194.4,204.7z"/>
	<path class="st0" d="M203.3,211.6c0,0.6,0,0.7-0.2,1c-0.2,0.4-0.6,0.6-1.1,0.6c-0.4,0-0.9-0.3-1.1-0.6c-0.1-0.3-0.2-0.4-0.2-1v-7.6
		c0-0.8,0-1,0.3-1.3c0.3-0.4,0.7-0.6,1.2-0.6h2.5c2.3,0,3.8,1.3,3.8,3.4c0,0.9-0.3,1.7-0.8,2.2c-0.4,0.4-0.8,0.6-1.7,0.8l2.1,2.4
		c0.5,0.5,0.6,0.8,0.6,1.1c0,0.7-0.6,1.2-1.3,1.2c-0.4,0-0.7-0.2-1.2-0.8l-3.1-3.8L203.3,211.6L203.3,211.6z M204.8,207
		c0.8,0,1.3-0.5,1.3-1.2c0-0.7-0.6-1.3-1.4-1.3h-1.5v2.5H204.8z"/>
	<path class="st0" d="M213.1,211.6c0,0.6,0,0.7-0.2,1c-0.2,0.4-0.6,0.6-1.1,0.6c-0.4,0-0.9-0.3-1.1-0.6c-0.1-0.3-0.2-0.4-0.2-1v-7.9
		c0-0.6,0-0.7,0.2-1c0.2-0.4,0.6-0.6,1.1-0.6c0.5,0,0.9,0.3,1.1,0.6c0.1,0.3,0.2,0.4,0.2,1v2.8l3.2-3.6c0.6-0.7,0.9-0.8,1.4-0.8
		c0.7,0,1.2,0.5,1.2,1.2c0,0.5-0.1,0.7-0.7,1.3l-2.6,2.7l3.3,3.5c0.6,0.6,0.7,0.8,0.7,1.3c0,0.7-0.5,1.2-1.2,1.2
		c-0.5,0-0.8-0.1-1.4-0.8l-3.8-4.2V211.6L213.1,211.6z"/>
</g>
<g>
	<path class="st1" d="M118.1,168c0.1,1.2-0.5,2.1-1.6,2.2c-0.4,0-0.7,0-1.7-0.3c-0.9-0.3-1.5-0.3-2.4-0.2c-3,0.4-4.6,2.8-4.2,6.6
		c0.4,3.7,2.5,5.8,5.6,5.4c0.7-0.1,1.7-0.5,3-1.3c0.3-0.2,0.7-0.3,1-0.3c1-0.1,1.9,0.7,2,1.8c0.2,1.9-2.1,3.5-5.5,3.9
		c-5.8,0.7-10.1-2.9-10.9-9.1c-0.7-6,2.8-10.6,8.4-11.2C115.4,165.2,117.8,166.2,118.1,168L118.1,168z"/>
	<path class="st1" d="M127.8,180.3l-0.3,1.7c-0.3,1.7-0.9,2.5-2.1,2.6c-1.2,0.1-2.4-0.8-2.5-1.9c0-0.5,0-0.6,0.2-1.6l3.8-14.4
		c0.4-1.6,1.5-2.6,3.1-2.8c1.5-0.1,2.8,0.7,3.5,2.2l6.3,13.5c0.4,0.9,0.5,1,0.5,1.5c0.1,1.2-0.8,2.2-2.1,2.4
		c-1.2,0.1-1.8-0.5-2.5-2.1l-0.6-1.6L127.8,180.3L127.8,180.3z M130.5,168.5l-1.7,7.6l4.7-0.4L130.5,168.5L130.5,168.5z"/>
	<path class="st1" d="M148.7,179.6c0.1,1.1,0,1.3-0.2,1.9c-0.3,0.7-1.1,1.2-1.8,1.2c-0.8,0.1-1.6-0.4-2-1c-0.3-0.5-0.3-0.8-0.4-1.8
		l-0.9-13.5c-0.1-1.4,0-1.7,0.3-2.3c0.5-0.7,1.1-1.1,2.1-1.1l0.6,0l4-0.3c2.2-0.2,3.8,0.2,5.1,1.3c1.4,1.1,2.2,2.9,2.4,4.8
		c0.1,1.6-0.3,3.3-1.2,4.5c-1,1.5-2.6,2.3-4.8,2.4l-3.4,0.2L148.7,179.6L148.7,179.6z M150.4,171.8c1.8-0.1,2.9-1.3,2.8-2.8
		c-0.1-1.6-1.3-2.6-2.9-2.5l-2.5,0.2l0.4,5.3L150.4,171.8z"/>
	<path class="st1" d="M161.5,164.6c-0.1-1.1,0-1.3,0.2-1.9c0.3-0.7,1.1-1.2,1.9-1.2c0.8,0,1.6,0.4,2,1c0.3,0.5,0.3,0.7,0.4,1.9
		l0.7,14.1c0.1,1.1,0,1.3-0.2,1.9c-0.3,0.7-1.1,1.2-1.9,1.2c-0.8,0-1.6-0.4-2-1c-0.3-0.5-0.3-0.7-0.4-1.9L161.5,164.6L161.5,164.6z"
		/>
	<path class="st1" d="M179.5,177.9c0,1.1,0,1.3-0.2,1.9c-0.3,0.7-1.1,1.1-1.9,1.2c-0.8,0-1.6-0.4-2-1c-0.3-0.5-0.3-0.7-0.4-1.9
		l-0.4-12.8l-2.2,0.1c-1,0-1.2,0-1.7-0.2c-0.6-0.3-1-1-1.1-1.7c0-0.7,0.4-1.4,0.9-1.8c0.5-0.3,0.7-0.3,1.7-0.3l8.8-0.3
		c1,0,1.2,0,1.7,0.2c0.6,0.3,1,1,1.1,1.7c0,0.7-0.4,1.5-0.9,1.8c-0.5,0.3-0.7,0.3-1.7,0.3l-2.1,0.1L179.5,177.9L179.5,177.9z"/>
	<path class="st1" d="M205.6,170.5c0,6.1-3.8,10.3-9.5,10.3c-5.9,0-9.7-4.1-9.8-10.4c0-3.1,1.1-5.9,3.1-7.7c1.8-1.6,4-2.4,6.4-2.4
		C201.6,160.3,205.6,164.4,205.6,170.5L205.6,170.5z M191.1,170.4c0,3.9,1.9,6.4,5,6.4c2.9,0,4.8-2.5,4.8-6.3s-1.9-6.2-4.9-6.2
		C193.1,164.3,191.1,166.8,191.1,170.4L191.1,170.4z"/>
	<path class="st1" d="M218.6,176.6c1,0,1.2,0.1,1.7,0.3c0.6,0.3,1,1,1,1.7c0,0.7-0.4,1.4-1,1.7c-0.5,0.2-0.7,0.2-1.7,0.2l-5.3-0.1
		c-2.4,0.1-3.5-1-3.3-3.5l0.3-13.4c0-1.1,0.1-1.3,0.3-1.9c0.4-0.6,1.2-1.1,2-1.1c0.8,0,1.6,0.5,1.9,1.2c0.3,0.5,0.3,0.8,0.3,1.9
		l-0.3,12.8L218.6,176.6L218.6,176.6z"/>
	<path class="st1" d="M238.3,178.7c-0.1,1.1-0.1,1.3-0.4,1.8c-0.4,0.6-1.2,1-2,1c-0.8,0-1.6-0.6-1.9-1.2c-0.2-0.5-0.2-0.8-0.2-1.9
		l0.8-13.5c0.1-1.4,0.2-1.7,0.6-2.2c0.6-0.7,1.3-0.9,2.3-0.9l0.6,0l4,0.2c4.1,0.2,6.7,2.8,6.4,6.4c-0.1,1.6-0.7,3-1.8,3.8
		c-0.8,0.7-1.5,1-3.1,1.2l3.5,4.4c0.8,1,1,1.4,1,2.1c-0.1,1.2-1.2,2.1-2.4,2.1c-0.8,0-1.3-0.4-2-1.5l-5.1-7.2L238.3,178.7
		L238.3,178.7z M241.6,170.6c1.4,0.1,2.4-0.8,2.5-2c0.1-1.3-0.9-2.4-2.3-2.5l-2.7-0.2l-0.3,4.6L241.6,170.6L241.6,170.6z"/>
	<path class="st1" d="M257.8,171l3.7,0.3c1,0.1,1.2,0.1,1.6,0.4c0.6,0.3,0.9,1.1,0.8,1.8c-0.1,0.7-0.5,1.4-1.1,1.7
		c-0.5,0.2-0.7,0.2-1.7,0.1l-3.7-0.3l-0.3,3.8l4.2,0.3c1,0.1,1.2,0.1,1.6,0.4c0.6,0.3,0.9,1.1,0.8,1.8c-0.1,0.7-0.5,1.4-1.1,1.7
		c-0.5,0.2-0.7,0.2-1.7,0.1l-5.4-0.4c-2.3-0.1-3.3-1.2-3-3.5l1.1-13c0.1-1.3,0.2-1.7,0.7-2.2c0.6-0.7,1.3-0.9,2.3-0.8l0.6,0l5.4,0.4
		c1,0.1,1.2,0.1,1.6,0.4c0.6,0.3,0.9,1.1,0.8,1.8c-0.1,0.7-0.5,1.4-1.1,1.7c-0.5,0.2-0.7,0.2-1.7,0.1l-4.2-0.3L257.8,171L257.8,171z
		"/>
	<path class="st1" d="M273.7,172.4l3.7,0.4c1,0.1,1.2,0.1,1.6,0.4c0.6,0.3,0.9,1.1,0.8,1.8c-0.1,0.7-0.6,1.4-1.2,1.6
		c-0.5,0.2-0.7,0.2-1.7,0.1l-3.7-0.4l-0.4,3.8l4.2,0.4c1,0.1,1.2,0.1,1.6,0.4c0.6,0.3,0.9,1.1,0.8,1.8c-0.1,0.7-0.6,1.4-1.2,1.6
		c-0.5,0.2-0.7,0.2-1.7,0.1l-5.4-0.5c-2.3-0.1-3.3-1.2-2.9-3.6l1.3-12.9c0.1-1.3,0.3-1.7,0.7-2.2c0.6-0.6,1.3-0.9,2.3-0.8l0.6,0.1
		l5.4,0.5c1,0.1,1.2,0.1,1.6,0.4c0.6,0.4,0.9,1.1,0.8,1.8c-0.1,0.7-0.6,1.4-1.2,1.6c-0.5,0.2-0.7,0.2-1.7,0.1l-4.2-0.4L273.7,172.4
		L273.7,172.4z"/>
	<path class="st1" d="M289.6,174.3l3.5,0.4c1,0.1,1.2,0.2,1.6,0.5c0.5,0.4,0.9,1.1,0.8,1.8c-0.1,0.7-0.6,1.4-1.2,1.6
		c-0.5,0.2-0.7,0.2-1.7,0.1l-3.5-0.4l-0.6,4.9c-0.1,1.1-0.2,1.3-0.5,1.8c-0.4,0.6-1.3,1-2.1,0.9c-0.8-0.1-1.5-0.7-1.8-1.3
		c-0.2-0.6-0.2-0.8-0.1-1.9l1.7-13.5c0.2-1.3,0.3-1.7,0.7-2.2c0.6-0.6,1.3-0.8,2.3-0.7l0.6,0.1l5.5,0.7c1,0.1,1.2,0.2,1.6,0.5
		c0.5,0.4,0.9,1.1,0.8,1.8c-0.1,0.7-0.6,1.4-1.2,1.6c-0.5,0.2-0.7,0.2-1.7,0.1l-4.2-0.5L289.6,174.3L289.6,174.3z"/>
</g>
</svg>
